<svg version="1.1" viewBox="0.0 0.0 477.08923884514434 476.2230971128609" fill="none" stroke="none" stroke-linecap="square" stroke-miterlimit="10" xmlns:xlink="http://www.w3.org/1999/xlink" xmlns="http://www.w3.org/2000/svg"><clipPath id="p.0"><path d="m0 0l477.08923 0l0 476.22308l-477.08923 0l0 -476.22308z" clip-rule="nonzero"/></clipPath><g clip-path="url(#p.0)"><path fill="#000000" fill-opacity="0.0" d="m0 0l477.08923 0l0 476.22308l-477.08923 0z" fill-rule="evenodd"/><path fill="#00ff00" fill-opacity="0.5038" d="m5.897638 238.11023l0 0c0 -128.48665 104.15901 -232.64566 232.64566 -232.64566l0 0c61.701477 0 120.87579 24.510813 164.50534 68.140335c43.629517 43.629524 68.14032 102.80386 68.14032 164.50533l0 0c0 128.48666 -104.159 232.64569 -232.64566 232.64569l0 0c-128.48666 0 -232.64566 -104.15903 -232.64566 -232.64569z" fill-rule="evenodd"/><path stroke="#000000" stroke-width="8.0" stroke-linejoin="round" stroke-linecap="butt" d="m5.897638 238.11023l0 0c0 -128.48665 104.15901 -232.64566 232.64566 -232.64566l0 0c61.701477 0 120.87579 24.510813 164.50534 68.140335c43.629517 43.629524 68.14032 102.80386 68.14032 164.50533l0 0c0 128.48666 -104.159 232.64569 -232.64566 232.64569l0 0c-128.48666 0 -232.64566 -104.15903 -232.64566 -232.64569z" fill-rule="evenodd"/><path fill="#00ea00" d="m202.39024 80.80494l0 0c0 -19.969223 16.188263 -36.15748 36.157486 -36.15748l0 0c9.589554 0 18.786346 3.8094368 25.5672 10.590282c6.7808228 6.780842 10.590271 15.977642 10.590271 25.567196l0 0c0 19.96923 -16.188263 36.157486 -36.15747 36.157486l0 0c-19.969223 0 -36.157486 -16.188255 -36.157486 -36.157486z" fill-rule="evenodd"/><path stroke="#000000" stroke-width="8.0" stroke-linejoin="round" stroke-linecap="butt" d="m202.39024 80.80494l0 0c0 -19.969223 16.188263 -36.15748 36.157486 -36.15748l0 0c9.589554 0 18.786346 3.8094368 25.5672 10.590282c6.7808228 6.780842 10.590271 15.977642 10.590271 25.567196l0 0c0 19.96923 -16.188263 36.157486 -36.15747 36.157486l0 0c-19.969223 0 -36.157486 -16.188255 -36.157486 -36.157486z" fill-rule="evenodd"/><path fill="#00ea00" d="m202.39108 238.11023l0 0c0 -19.969223 16.188248 -36.15747 36.15747 -36.15747l0 0c9.589569 0 18.786346 3.809433 25.5672 10.590271c6.7808533 6.7808533 10.590271 15.977646 10.590271 25.5672l0 0c0 19.969238 -16.188232 36.1575 -36.15747 36.1575l0 0c-19.969223 0 -36.15747 -16.188263 -36.15747 -36.1575z" fill-rule="evenodd"/><path stroke="#000000" stroke-width="8.0" stroke-linejoin="round" stroke-linecap="butt" d="m202.39108 238.11023l0 0c0 -19.969223 16.188248 -36.15747 36.15747 -36.15747l0 0c9.589569 0 18.786346 3.809433 25.5672 10.590271c6.7808533 6.7808533 10.590271 15.977646 10.590271 25.5672l0 0c0 19.969238 -16.188232 36.1575 -36.15747 36.1575l0 0c-19.969223 0 -36.15747 -16.188263 -36.15747 -36.1575z" fill-rule="evenodd"/><path fill="#00ea00" d="m342.5801 125.824326l0 0c9.984589 -17.290428 32.095398 -23.21296 49.385803 -13.228348l0 0c8.303162 4.794777 14.361542 12.691589 16.842316 21.953232c2.4808044 9.261642 1.1808167 19.12944 -3.6139526 27.432587l0 0c-9.984619 17.290436 -32.095398 23.212967 -49.385834 13.228348l0 0c-17.290436 -9.984604 -23.212952 -32.095398 -13.2283325 -49.38582z" fill-rule="evenodd"/><path stroke="#000000" stroke-width="8.0" stroke-linejoin="round" stroke-linecap="butt" d="m342.5801 125.824326l0 0c9.984589 -17.290428 32.095398 -23.21296 49.385803 -13.228348l0 0c8.303162 4.794777 14.361542 12.691589 16.842316 21.953232c2.4808044 9.261642 1.1808167 19.12944 -3.6139526 27.432587l0 0c-9.984619 17.290436 -32.095398 23.212967 -49.385834 13.228348l0 0c-17.290436 -9.984604 -23.212952 -32.095398 -13.2283325 -49.38582z" fill-rule="evenodd"/><path fill="#000000" fill-opacity="0.0" d="m264.11493 106.37214l78.456696 19.46457" fill-rule="evenodd"/><path stroke="#000000" stroke-width="8.0" stroke-linejoin="round" stroke-linecap="butt" d="m264.11493 106.37214l78.456696 19.46457" fill-rule="evenodd"/><path fill="#000000" fill-opacity="0.0" d="m265.5488 219.7451l73.41733 -66.48819" fill-rule="evenodd"/><path stroke="#000000" stroke-width="8.0" stroke-linejoin="round" stroke-linecap="butt" d="m265.5488 219.7451l73.41733 -66.48819" fill-rule="evenodd"/><path fill="#00ea00" d="m71.887314 161.97643l0 0c-9.9846115 -17.29042 -4.0620804 -39.401215 13.228348 -49.385826l0 0c8.303154 -4.794777 18.170952 -6.0947647 27.432594 -3.613968c9.261635 2.4807968 17.158455 8.539162 21.95324 16.842316l0 0c9.984604 17.290428 4.0620728 39.401207 -13.228355 49.385826l0 0c-17.290428 9.984604 -39.401215 4.0620728 -49.385826 -13.228348z" fill-rule="evenodd"/><path stroke="#000000" stroke-width="8.0" stroke-linejoin="round" stroke-linecap="butt" d="m71.887314 161.97643l0 0c-9.9846115 -17.29042 -4.0620804 -39.401215 13.228348 -49.385826l0 0c8.303154 -4.794777 18.170952 -6.0947647 27.432594 -3.613968c9.261635 2.4807968 17.158455 8.539162 21.95324 16.842316l0 0c9.984604 17.290428 4.0620728 39.401207 -13.228355 49.385826l0 0c-17.290428 9.984604 -39.401215 4.0620728 -49.385826 -13.228348z" fill-rule="evenodd"/><path fill="#000000" fill-opacity="0.0" d="m134.5015 125.81895l78.488174 -19.433075" fill-rule="evenodd"/><path stroke="#000000" stroke-width="8.0" stroke-linejoin="round" stroke-linecap="butt" d="m134.5015 125.81895l78.488174 -19.433075" fill-rule="evenodd"/><path fill="#000000" fill-opacity="0.0" d="m138.11545 153.25154l74.86615 59.307083" fill-rule="evenodd"/><path stroke="#000000" stroke-width="8.0" stroke-linejoin="round" stroke-linecap="butt" d="m138.11545 153.25154l74.86615 59.307083" fill-rule="evenodd"/><path fill="#00ea00" d="m71.887314 341.73233l0 0c-9.9846115 -17.290436 -4.0620804 -39.401215 13.228348 -49.385834l0 0c8.303154 -4.7947693 18.170952 -6.094757 27.432594 -3.6139526c9.261635 2.4808044 17.158455 8.539154 21.95324 16.842316l0 0c9.984604 17.290405 4.0620728 39.401215 -13.228355 49.385803l0 0c-17.290428 9.984619 -39.401215 4.0621033 -49.385826 -13.2283325z" fill-rule="evenodd"/><path stroke="#000000" stroke-width="8.0" stroke-linejoin="round" stroke-linecap="butt" d="m71.887314 341.73233l0 0c-9.9846115 -17.290436 -4.0620804 -39.401215 13.228348 -49.385834l0 0c8.303154 -4.7947693 18.170952 -6.094757 27.432594 -3.6139526c9.261635 2.4808044 17.158455 8.539154 21.95324 16.842316l0 0c9.984604 17.290405 4.0620728 39.401215 -13.228355 49.385803l0 0c-17.290428 9.984619 -39.401215 4.0621033 -49.385826 -13.2283325z" fill-rule="evenodd"/><path fill="#00ea00" d="m202.38583 386.54068l0 0c0 -19.969208 16.188248 -36.15747 36.15747 -36.15747l0 0c9.589569 0 18.786346 3.8094177 25.5672 10.590271c6.7808533 6.7808533 10.590271 15.977631 10.590271 25.5672l0 0c0 19.969238 -16.188232 36.15747 -36.15747 36.15747l0 0c-19.969223 0 -36.15747 -16.188232 -36.15747 -36.15747z" fill-rule="evenodd"/><path stroke="#000000" stroke-width="8.0" stroke-linejoin="round" stroke-linecap="butt" d="m202.38583 386.54068l0 0c0 -19.969208 16.188248 -36.15747 36.15747 -36.15747l0 0c9.589569 0 18.786346 3.8094177 25.5672 10.590271c6.7808533 6.7808533 10.590271 15.977631 10.590271 25.5672l0 0c0 19.969238 -16.188232 36.15747 -36.15747 36.15747l0 0c-19.969223 0 -36.15747 -16.188232 -36.15747 -36.15747z" fill-rule="evenodd"/><path fill="#00ea00" d="m342.59586 305.57498l0 0c9.984619 -17.290436 32.095398 -23.212952 49.385834 -13.228363l0 0c8.303131 4.7948 14.361511 12.69162 16.842285 21.953247c2.4808044 9.261627 1.1808167 19.129425 -3.6139526 27.432587l0 0c-9.984619 17.290436 -32.095398 23.212952 -49.385834 13.228363l0 0c-17.290405 -9.984619 -23.212952 -32.095398 -13.2283325 -49.385834z" fill-rule="evenodd"/><path stroke="#000000" stroke-width="8.0" stroke-linejoin="round" stroke-linecap="butt" d="m342.59586 305.57498l0 0c9.984619 -17.290436 32.095398 -23.212952 49.385834 -13.228363l0 0c8.303131 4.7948 14.361511 12.69162 16.842285 21.953247c2.4808044 9.261627 1.1808167 19.129425 -3.6139526 27.432587l0 0c-9.984619 17.290436 -32.095398 23.212952 -49.385834 13.228363l0 0c-17.290405 -9.984619 -23.212952 -32.095398 -13.2283325 -49.385834z" fill-rule="evenodd"/><path fill="#000000" fill-opacity="0.0" d="m123.464294 178.10735l89.51181 182.86613" fill-rule="evenodd"/><path stroke="#000000" stroke-width="8.0" stroke-linejoin="round" stroke-linecap="butt" d="m123.464294 178.10735l89.51181 182.86613" fill-rule="evenodd"/><path fill="#000000" fill-opacity="0.0" d="m355.80844 175.21014l-91.68503 185.7638" fill-rule="evenodd"/><path stroke="#000000" stroke-width="8.0" stroke-linejoin="round" stroke-linecap="butt" d="m355.80844 175.21014l-91.68503 185.7638" fill-rule="evenodd"/><path fill="#000000" fill-opacity="0.0" d="m274.70078 386.54068l81.13388 -31.590546" fill-rule="evenodd"/><path stroke="#000000" stroke-width="8.0" stroke-linejoin="round" stroke-linecap="butt" d="m274.70078 386.54068l81.13388 -31.590546" fill-rule="evenodd"/><path fill="#000000" fill-opacity="0.0" d="m202.38583 386.54068l-81.10237 -31.590546" fill-rule="evenodd"/><path stroke="#000000" stroke-width="8.0" stroke-linejoin="round" stroke-linecap="butt" d="m202.38583 386.54068l-81.10237 -31.590546" fill-rule="evenodd"/><path fill="#000000" fill-opacity="0.0" d="m134.5015 305.57486l78.488174 -41.88977" fill-rule="evenodd"/><path stroke="#000000" stroke-width="8.0" stroke-linejoin="round" stroke-linecap="butt" d="m134.5015 305.57486l78.488174 -41.88977" fill-rule="evenodd"/><path fill="#000000" fill-opacity="0.0" d="m342.59586 305.57498l-78.48819 -41.88977" fill-rule="evenodd"/><path stroke="#000000" stroke-width="8.0" stroke-linejoin="round" stroke-linecap="butt" d="m342.59586 305.57498l-78.48819 -41.88977" fill-rule="evenodd"/><path fill="#000000" fill-opacity="0.0" d="m112.548256 288.73254l100.44094 -182.36221" fill-rule="evenodd"/><path stroke="#000000" stroke-width="8.0" stroke-linejoin="round" stroke-linecap="butt" d="m112.548256 288.73254l100.44094 -182.36221" fill-rule="evenodd"/><path fill="#000000" fill-opacity="0.0" d="m264.11493 106.37214l100.44095 182.36221" fill-rule="evenodd"/><path stroke="#000000" stroke-width="8.0" stroke-linejoin="round" stroke-linecap="butt" d="m264.11493 106.37214l100.44095 182.36221" fill-rule="evenodd"/><path fill="#d9d9d9" d="m225.62115 237.06824l0 0c0 -6.883377 2.4994354 -13.235718 6.54451 -16.632996c4.045059 -3.3972626 9.011658 -3.3152924 13.004532 0.21464539c3.9928741 3.5299377 6.3959656 9.963196 6.2922363 16.844864l-5.164154 -0.17048645c0.05114746 -5.016556 -1.3977051 -9.696564 -3.7949371 -12.258209c-2.3972168 -2.5616455 -5.3739624 -2.6107788 -7.7968903 -0.12869263c-2.4229279 2.4820862 -3.9192352 7.1134796 -3.9192352 12.130875z" fill-rule="evenodd"/><path stroke="#000000" stroke-width="3.0" stroke-linejoin="round" stroke-linecap="butt" d="m225.62115 237.06824l0 0c0 -6.883377 2.4994354 -13.235718 6.54451 -16.632996c4.045059 -3.3972626 9.011658 -3.3152924 13.004532 0.21464539c3.9928741 3.5299377 6.3959656 9.963196 6.2922363 16.844864l-5.164154 -0.17048645c0.05114746 -5.016556 -1.3977051 -9.696564 -3.7949371 -12.258209c-2.3972168 -2.5616455 -5.3739624 -2.6107788 -7.7968903 -0.12869263c-2.4229279 2.4820862 -3.9192352 7.1134796 -3.9192352 12.130875z" fill-rule="evenodd"/><path fill="#ffe599" d="m222.77614 235.40857l31.53453 0l0 22.868164l-31.53453 0z" fill-rule="evenodd"/><path stroke="#000000" stroke-width="3.0" stroke-linejoin="round" stroke-linecap="butt" d="m222.77614 235.40857l31.53453 0l0 22.868164l-31.53453 0z" fill-rule="evenodd"/><path fill="#d9d9d9" d="m225.62115 79.1916l0 0c0 -6.8833694 2.4994354 -13.235718 6.54451 -16.632988c4.045059 -3.397274 9.011658 -3.3153 13.004532 0.21463776c3.9928741 3.5299377 6.3959656 9.963203 6.2922363 16.844856l-5.164154 -0.17048645c0.05114746 -5.016556 -1.3977051 -9.696548 -3.7949371 -12.258194c-2.3972168 -2.5616455 -5.3739624 -2.6107788 -7.7968903 -0.12869263c-2.4229279 2.4820862 -3.9192352 7.113472 -3.9192352 12.130867z" fill-rule="evenodd"/><path stroke="#000000" stroke-width="3.0" stroke-linejoin="round" stroke-linecap="butt" d="m225.62115 79.1916l0 0c0 -6.8833694 2.4994354 -13.235718 6.54451 -16.632988c4.045059 -3.397274 9.011658 -3.3153 13.004532 0.21463776c3.9928741 3.5299377 6.3959656 9.963203 6.2922363 16.844856l-5.164154 -0.17048645c0.05114746 -5.016556 -1.3977051 -9.696548 -3.7949371 -12.258194c-2.3972168 -2.5616455 -5.3739624 -2.6107788 -7.7968903 -0.12869263c-2.4229279 2.4820862 -3.9192352 7.113472 -3.9192352 12.130867z" fill-rule="evenodd"/><path fill="#ffe599" d="m222.77614 77.53192l31.53453 0l0 22.868187l-31.53453 0z" fill-rule="evenodd"/><path stroke="#000000" stroke-width="3.0" stroke-linejoin="round" stroke-linecap="butt" d="m222.77614 77.53192l31.53453 0l0 22.868187l-31.53453 0z" fill-rule="evenodd"/><path fill="#d9d9d9" d="m225.62115 384.1706l0 0c0 -6.883362 2.4994354 -13.235718 6.54451 -16.632996c4.045059 -3.3972473 9.011658 -3.315277 13.004532 0.21466064c3.9928741 3.5299377 6.3959656 9.963196 6.2922363 16.844849l-5.164154 -0.17050171c0.05114746 -5.0165405 -1.3977051 -9.696533 -3.7949371 -12.258179c-2.3972168 -2.5616455 -5.3739624 -2.6107788 -7.7968903 -0.12869263c-2.4229279 2.4820862 -3.9192352 7.1134644 -3.9192352 12.130859z" fill-rule="evenodd"/><path stroke="#000000" stroke-width="3.0" stroke-linejoin="round" stroke-linecap="butt" d="m225.62115 384.1706l0 0c0 -6.883362 2.4994354 -13.235718 6.54451 -16.632996c4.045059 -3.3972473 9.011658 -3.315277 13.004532 0.21466064c3.9928741 3.5299377 6.3959656 9.963196 6.2922363 16.844849l-5.164154 -0.17050171c0.05114746 -5.0165405 -1.3977051 -9.696533 -3.7949371 -12.258179c-2.3972168 -2.5616455 -5.3739624 -2.6107788 -7.7968903 -0.12869263c-2.4229279 2.4820862 -3.9192352 7.1134644 -3.9192352 12.130859z" fill-rule="evenodd"/><path fill="#ffe599" d="m222.77614 382.51093l31.53453 0l0 22.868195l-31.53453 0z" fill-rule="evenodd"/><path stroke="#000000" stroke-width="3.0" stroke-linejoin="round" stroke-linecap="butt" d="m222.77614 382.51093l31.53453 0l0 22.868195l-31.53453 0z" fill-rule="evenodd"/><path fill="#d9d9d9" d="m361.7865 141.80315l0 0c0 -6.883377 2.4994507 -13.235718 6.544525 -16.632988c4.0450745 -3.3972702 9.011658 -3.3153 13.004547 0.21463776c3.992859 3.5299377 6.395935 9.963196 6.292206 16.844864l-5.1641235 -0.17050171c0.051116943 -5.0165405 -1.3977356 -9.696548 -3.7949524 -12.258194c-2.3972168 -2.5616379 -5.3739624 -2.6107712 -7.7969055 -0.12869263c-2.4229126 2.4820862 -3.91922 7.1134796 -3.91922 12.130875z" fill-rule="evenodd"/><path stroke="#000000" stroke-width="3.0" stroke-linejoin="round" stroke-linecap="butt" d="m361.7865 141.80315l0 0c0 -6.883377 2.4994507 -13.235718 6.544525 -16.632988c4.0450745 -3.3972702 9.011658 -3.3153 13.004547 0.21463776c3.992859 3.5299377 6.395935 9.963196 6.292206 16.844864l-5.1641235 -0.17050171c0.051116943 -5.0165405 -1.3977356 -9.696548 -3.7949524 -12.258194c-2.3972168 -2.5616379 -5.3739624 -2.6107712 -7.7969055 -0.12869263c-2.4229126 2.4820862 -3.91922 7.1134796 -3.91922 12.130875z" fill-rule="evenodd"/><path fill="#ffe599" d="m358.9415 140.14348l31.534515 0l0 22.86818l-31.534515 0z" fill-rule="evenodd"/><path stroke="#000000" stroke-width="3.0" stroke-linejoin="round" stroke-linecap="butt" d="m358.9415 140.14348l31.534515 0l0 22.86818l-31.534515 0z" fill-rule="evenodd"/><path fill="#d9d9d9" d="m361.7865 322.16534l0 0c0 -6.883362 2.4994507 -13.235718 6.544525 -16.632996c4.0450745 -3.3972473 9.011658 -3.315277 13.004547 0.21466064c3.992859 3.5299377 6.395935 9.963196 6.292206 16.844849l-5.1641235 -0.17050171c0.051116943 -5.0165405 -1.3977356 -9.696533 -3.7949524 -12.258179c-2.3972168 -2.5616455 -5.3739624 -2.6107788 -7.7969055 -0.12869263c-2.4229126 2.4820862 -3.91922 7.1134644 -3.91922 12.130859z" fill-rule="evenodd"/><path stroke="#000000" stroke-width="3.0" stroke-linejoin="round" stroke-linecap="butt" d="m361.7865 322.16534l0 0c0 -6.883362 2.4994507 -13.235718 6.544525 -16.632996c4.0450745 -3.3972473 9.011658 -3.315277 13.004547 0.21466064c3.992859 3.5299377 6.395935 9.963196 6.292206 16.844849l-5.1641235 -0.17050171c0.051116943 -5.0165405 -1.3977356 -9.696533 -3.7949524 -12.258179c-2.3972168 -2.5616455 -5.3739624 -2.6107788 -7.7969055 -0.12869263c-2.4229126 2.4820862 -3.91922 7.1134644 -3.91922 12.130859z" fill-rule="evenodd"/><path fill="#ffe599" d="m358.9415 320.50568l31.534515 0l0 22.868195l-31.534515 0z" fill-rule="evenodd"/><path stroke="#000000" stroke-width="3.0" stroke-linejoin="round" stroke-linecap="butt" d="m358.9415 320.50568l31.534515 0l0 22.868195l-31.534515 0z" fill-rule="evenodd"/><path fill="#d9d9d9" d="m90.10935 322.16534l0 0c0 -6.883362 2.4994202 -13.235718 6.5444946 -16.632996c4.0450745 -3.3972473 9.011673 -3.315277 13.004547 0.21466064c3.9928741 3.5299377 6.3959503 9.963196 6.2922287 16.844849l-5.1641464 -0.17050171c0.051132202 -5.0165405 -1.3977203 -9.696533 -3.7949448 -12.258179c-2.3972244 -2.5616455 -5.3739624 -2.6107788 -7.7968903 -0.12869263c-2.4229355 2.4820862 -3.9192352 7.1134644 -3.9192352 12.130859z" fill-rule="evenodd"/><path stroke="#000000" stroke-width="3.0" stroke-linejoin="round" stroke-linecap="butt" d="m90.10935 322.16534l0 0c0 -6.883362 2.4994202 -13.235718 6.5444946 -16.632996c4.0450745 -3.3972473 9.011673 -3.315277 13.004547 0.21466064c3.9928741 3.5299377 6.3959503 9.963196 6.2922287 16.844849l-5.1641464 -0.17050171c0.051132202 -5.0165405 -1.3977203 -9.696533 -3.7949448 -12.258179c-2.3972244 -2.5616455 -5.3739624 -2.6107788 -7.7968903 -0.12869263c-2.4229355 2.4820862 -3.9192352 7.1134644 -3.9192352 12.130859z" fill-rule="evenodd"/><path fill="#ffe599" d="m87.26433 320.50568l31.534523 0l0 22.868195l-31.534523 0z" fill-rule="evenodd"/><path stroke="#000000" stroke-width="3.0" stroke-linejoin="round" stroke-linecap="butt" d="m87.26433 320.50568l31.534523 0l0 22.868195l-31.534523 0z" fill-rule="evenodd"/><path fill="#d9d9d9" d="m90.10935 141.80315l0 0c0 -6.883377 2.4994202 -13.235718 6.5444946 -16.632988c4.0450745 -3.3972702 9.011673 -3.3153 13.004547 0.21463776c3.9928741 3.5299377 6.3959503 9.963196 6.2922287 16.844864l-5.1641464 -0.17050171c0.051132202 -5.0165405 -1.3977203 -9.696548 -3.7949448 -12.258194c-2.3972244 -2.5616379 -5.3739624 -2.6107712 -7.7968903 -0.12869263c-2.4229355 2.4820862 -3.9192352 7.1134796 -3.9192352 12.130875z" fill-rule="evenodd"/><path stroke="#000000" stroke-width="3.0" stroke-linejoin="round" stroke-linecap="butt" d="m90.10935 141.80315l0 0c0 -6.883377 2.4994202 -13.235718 6.5444946 -16.632988c4.0450745 -3.3972702 9.011673 -3.3153 13.004547 0.21463776c3.9928741 3.5299377 6.3959503 9.963196 6.2922287 16.844864l-5.1641464 -0.17050171c0.051132202 -5.0165405 -1.3977203 -9.696548 -3.7949448 -12.258194c-2.3972244 -2.5616379 -5.3739624 -2.6107712 -7.7968903 -0.12869263c-2.4229355 2.4820862 -3.9192352 7.1134796 -3.9192352 12.130875z" fill-rule="evenodd"/><path fill="#ffe599" d="m87.26433 140.14348l31.534523 0l0 22.86818l-31.534523 0z" fill-rule="evenodd"/><path stroke="#000000" stroke-width="3.0" stroke-linejoin="round" stroke-linecap="butt" d="m87.26433 140.14348l31.534523 0l0 22.86818l-31.534523 0z" fill-rule="evenodd"/></g></svg>