<svg version="1.1" viewBox="0.0 0.0 472.753280839895 472.753280839895" fill="none" stroke="none" stroke-linecap="square" stroke-miterlimit="10" xmlns:xlink="http://www.w3.org/1999/xlink" xmlns="http://www.w3.org/2000/svg"><clipPath id="p.0"><path d="m0 0l472.7533 0l0 472.7533l-472.7533 0l0 -472.7533z" clip-rule="nonzero"/></clipPath><g clip-path="url(#p.0)"><path fill="#000000" fill-opacity="0.0" d="m0 0l472.7533 0l0 472.7533l-472.7533 0z" fill-rule="evenodd"/><defs><radialGradient id="p.1" gradientUnits="userSpaceOnUse" gradientTransform="matrix(18.138651072493204 0.0 0.0 18.138651072493204 0.0 0.0)" spreadMethod="pad" cx="13.031654860950857" cy="13.031654860950857" fx="13.031654860950857" fy="13.031654860950857" r="18.13865089416504"><stop offset="0.0" stop-color="#00ff00"/><stop offset="1.0" stop-color="#93bc81"/></radialGradient></defs><path fill="url(#p.1)" d="m3.730971 236.37665l0 0c0 -128.48666 104.15901 -232.64568 232.64568 -232.64568l0 0c61.701447 0 120.87579 24.510813 164.50531 68.140335c43.629547 43.62953 68.14035 102.80386 68.14035 164.50534l0 0c0 128.48663 -104.15903 232.64566 -232.64566 232.64566l0 0c-128.48666 0 -232.64568 -104.15903 -232.64568 -232.64566z" fill-rule="evenodd"/><path stroke="#000000" stroke-width="4.0" stroke-linejoin="round" stroke-linecap="butt" d="m3.730971 236.37665l0 0c0 -128.48666 104.15901 -232.64568 232.64568 -232.64568l0 0c61.701447 0 120.87579 24.510813 164.50531 68.140335c43.629547 43.62953 68.14035 102.80386 68.14035 164.50534l0 0c0 128.48663 -104.15903 232.64566 -232.64566 232.64566l0 0c-128.48666 0 -232.64568 -104.15903 -232.64568 -232.64566z" fill-rule="evenodd"/><path fill="#00ea00" d="m200.22357 79.07134l0 0c0 -19.969223 16.188263 -36.15748 36.157486 -36.15748l0 0c9.589554 0 18.786362 3.8094406 25.567184 10.590282c6.7808533 6.780842 10.5903015 15.977642 10.5903015 25.567196l0 0c0 19.96923 -16.188263 36.157486 -36.157486 36.157486l0 0c-19.969223 0 -36.157486 -16.188255 -36.157486 -36.157486z" fill-rule="evenodd"/><path stroke="#000000" stroke-width="8.0" stroke-linejoin="round" stroke-linecap="butt" d="m200.22357 79.07134l0 0c0 -19.969223 16.188263 -36.15748 36.157486 -36.15748l0 0c9.589554 0 18.786362 3.8094406 25.567184 10.590282c6.7808533 6.780842 10.5903015 15.977642 10.5903015 25.567196l0 0c0 19.96923 -16.188263 36.157486 -36.157486 36.157486l0 0c-19.969223 0 -36.157486 -16.188255 -36.157486 -36.157486z" fill-rule="evenodd"/><path fill="#00ea00" d="m200.22441 236.37665l0 0c0 -19.969238 16.188248 -36.157486 36.157486 -36.157486l0 0c9.589554 0 18.786346 3.809433 25.5672 10.590286c6.7808228 6.780838 10.590271 15.977631 10.590271 25.5672l0 0c0 19.969208 -16.188263 36.15747 -36.15747 36.15747l0 0c-19.969238 0 -36.157486 -16.188263 -36.157486 -36.15747z" fill-rule="evenodd"/><path stroke="#000000" stroke-width="8.0" stroke-linejoin="round" stroke-linecap="butt" d="m200.22441 236.37665l0 0c0 -19.969238 16.188248 -36.157486 36.157486 -36.157486l0 0c9.589554 0 18.786346 3.809433 25.5672 10.590286c6.7808228 6.780838 10.590271 15.977631 10.590271 25.5672l0 0c0 19.969208 -16.188263 36.15747 -36.15747 36.15747l0 0c-19.969238 0 -36.157486 -16.188263 -36.157486 -36.15747z" fill-rule="evenodd"/><path fill="#00ea00" d="m340.41342 124.09073l0 0c9.984619 -17.290428 32.095398 -23.21296 49.385834 -13.228348l0 0c8.303162 4.794777 14.361511 12.691597 16.842316 21.953232c2.4808044 9.261642 1.1808167 19.12944 -3.6139526 27.432587l0 0c-9.984619 17.290436 -32.095398 23.212967 -49.385834 13.228348l0 0c-17.290436 -9.984604 -23.212952 -32.095398 -13.228363 -49.38582z" fill-rule="evenodd"/><path stroke="#000000" stroke-width="8.0" stroke-linejoin="round" stroke-linecap="butt" d="m340.41342 124.09073l0 0c9.984619 -17.290428 32.095398 -23.21296 49.385834 -13.228348l0 0c8.303162 4.794777 14.361511 12.691597 16.842316 21.953232c2.4808044 9.261642 1.1808167 19.12944 -3.6139526 27.432587l0 0c-9.984619 17.290436 -32.095398 23.212967 -49.385834 13.228348l0 0c-17.290436 -9.984604 -23.212952 -32.095398 -13.228363 -49.38582z" fill-rule="evenodd"/><path fill="#000000" fill-opacity="0.0" d="m261.94824 104.63854l78.456696 19.46457" fill-rule="evenodd"/><path stroke="#000000" stroke-width="8.0" stroke-linejoin="round" stroke-linecap="butt" d="m261.94824 104.63854l78.456696 19.46457" fill-rule="evenodd"/><path fill="#000000" fill-opacity="0.0" d="m263.38214 218.0115l73.41733 -66.48819" fill-rule="evenodd"/><path stroke="#000000" stroke-width="8.0" stroke-linejoin="round" stroke-linecap="butt" d="m263.38214 218.0115l73.41733 -66.48819" fill-rule="evenodd"/><path fill="#00ea00" d="m69.72065 160.24283l0 0c-9.984615 -17.29042 -4.0620804 -39.401215 13.228348 -49.385826l0 0c8.303154 -4.794777 18.170952 -6.0947647 27.432594 -3.613968c9.261635 2.4807968 17.158447 8.539162 21.953232 16.842316l0 0c9.984604 17.290428 4.0620728 39.401207 -13.228348 49.385826l0 0c-17.290428 9.984619 -39.401215 4.0620728 -49.385826 -13.228348z" fill-rule="evenodd"/><path stroke="#000000" stroke-width="8.0" stroke-linejoin="round" stroke-linecap="butt" d="m69.72065 160.24283l0 0c-9.984615 -17.29042 -4.0620804 -39.401215 13.228348 -49.385826l0 0c8.303154 -4.794777 18.170952 -6.0947647 27.432594 -3.613968c9.261635 2.4807968 17.158447 8.539162 21.953232 16.842316l0 0c9.984604 17.290428 4.0620728 39.401207 -13.228348 49.385826l0 0c-17.290428 9.984619 -39.401215 4.0620728 -49.385826 -13.228348z" fill-rule="evenodd"/><path fill="#000000" fill-opacity="0.0" d="m132.33482 124.08535l78.48819 -19.433075" fill-rule="evenodd"/><path stroke="#000000" stroke-width="8.0" stroke-linejoin="round" stroke-linecap="butt" d="m132.33482 124.08535l78.48819 -19.433075" fill-rule="evenodd"/><path fill="#000000" fill-opacity="0.0" d="m135.94879 151.51794l74.866135 59.307083" fill-rule="evenodd"/><path stroke="#000000" stroke-width="8.0" stroke-linejoin="round" stroke-linecap="butt" d="m135.94879 151.51794l74.866135 59.307083" fill-rule="evenodd"/><path fill="#00ea00" d="m69.72065 339.99875l0 0c-9.984615 -17.290436 -4.0620804 -39.401215 13.228348 -49.385834l0 0c8.303154 -4.7948 18.170952 -6.094757 27.432594 -3.6139832c9.261635 2.4808044 17.158447 8.539154 21.953232 16.842316l0 0c9.984604 17.290436 4.0620728 39.401215 -13.228348 49.385834l0 0c-17.290428 9.984619 -39.401215 4.0620728 -49.385826 -13.2283325z" fill-rule="evenodd"/><path stroke="#000000" stroke-width="8.0" stroke-linejoin="round" stroke-linecap="butt" d="m69.72065 339.99875l0 0c-9.984615 -17.290436 -4.0620804 -39.401215 13.228348 -49.385834l0 0c8.303154 -4.7948 18.170952 -6.094757 27.432594 -3.6139832c9.261635 2.4808044 17.158447 8.539154 21.953232 16.842316l0 0c9.984604 17.290436 4.0620728 39.401215 -13.228348 49.385834l0 0c-17.290428 9.984619 -39.401215 4.0620728 -49.385826 -13.2283325z" fill-rule="evenodd"/><path fill="#00ea00" d="m200.21916 384.8071l0 0c0 -19.969238 16.188248 -36.1575 36.157486 -36.1575l0 0c9.589554 0 18.786346 3.8094482 25.5672 10.5903015c6.7808228 6.7808228 10.590271 15.977631 10.590271 25.5672l0 0c0 19.969208 -16.188263 36.15747 -36.15747 36.15747l0 0c-19.969238 0 -36.157486 -16.188263 -36.157486 -36.15747z" fill-rule="evenodd"/><path stroke="#000000" stroke-width="8.0" stroke-linejoin="round" stroke-linecap="butt" d="m200.21916 384.8071l0 0c0 -19.969238 16.188248 -36.1575 36.157486 -36.1575l0 0c9.589554 0 18.786346 3.8094482 25.5672 10.5903015c6.7808228 6.7808228 10.590271 15.977631 10.590271 25.5672l0 0c0 19.969208 -16.188263 36.15747 -36.15747 36.15747l0 0c-19.969238 0 -36.157486 -16.188263 -36.157486 -36.15747z" fill-rule="evenodd"/><path fill="#00ea00" d="m340.42917 303.84137l0 0c9.984619 -17.290405 32.095398 -23.212952 49.385834 -13.2283325l0 0c8.303162 4.7947693 14.361511 12.691589 16.842316 21.953247c2.4808044 9.261627 1.1808167 19.129425 -3.6139526 27.432587l0 0c-9.984619 17.290405 -32.095398 23.212952 -49.385834 13.2283325l0 0c-17.290436 -9.984619 -23.212952 -32.095398 -13.228363 -49.385834z" fill-rule="evenodd"/><path stroke="#000000" stroke-width="8.0" stroke-linejoin="round" stroke-linecap="butt" d="m340.42917 303.84137l0 0c9.984619 -17.290405 32.095398 -23.212952 49.385834 -13.2283325l0 0c8.303162 4.7947693 14.361511 12.691589 16.842316 21.953247c2.4808044 9.261627 1.1808167 19.129425 -3.6139526 27.432587l0 0c-9.984619 17.290405 -32.095398 23.212952 -49.385834 13.2283325l0 0c-17.290436 -9.984619 -23.212952 -32.095398 -13.228363 -49.385834z" fill-rule="evenodd"/><path fill="#000000" fill-opacity="0.0" d="m121.29763 176.37375l89.51182 182.86615" fill-rule="evenodd"/><path stroke="#000000" stroke-width="8.0" stroke-linejoin="round" stroke-linecap="butt" d="m121.29763 176.37375l89.51182 182.86615" fill-rule="evenodd"/><path fill="#000000" fill-opacity="0.0" d="m353.64178 173.47655l-91.68506 185.76378" fill-rule="evenodd"/><path stroke="#000000" stroke-width="8.0" stroke-linejoin="round" stroke-linecap="butt" d="m353.64178 173.47655l-91.68506 185.76378" fill-rule="evenodd"/><path fill="#000000" fill-opacity="0.0" d="m272.53412 384.8071l81.13385 -31.590576" fill-rule="evenodd"/><path stroke="#000000" stroke-width="8.0" stroke-linejoin="round" stroke-linecap="butt" d="m272.53412 384.8071l81.13385 -31.590576" fill-rule="evenodd"/><path fill="#000000" fill-opacity="0.0" d="m200.21916 384.8071l-81.10236 -31.590576" fill-rule="evenodd"/><path stroke="#000000" stroke-width="8.0" stroke-linejoin="round" stroke-linecap="butt" d="m200.21916 384.8071l-81.10236 -31.590576" fill-rule="evenodd"/><path fill="#000000" fill-opacity="0.0" d="m132.33482 303.84125l78.48819 -41.88977" fill-rule="evenodd"/><path stroke="#000000" stroke-width="8.0" stroke-linejoin="round" stroke-linecap="butt" d="m132.33482 303.84125l78.48819 -41.88977" fill-rule="evenodd"/><path fill="#000000" fill-opacity="0.0" d="m340.42917 303.84137l-78.48819 -41.88974" fill-rule="evenodd"/><path stroke="#000000" stroke-width="8.0" stroke-linejoin="round" stroke-linecap="butt" d="m340.42917 303.84137l-78.48819 -41.88974" fill-rule="evenodd"/><path fill="#000000" fill-opacity="0.0" d="m110.38159 286.99893l100.44095 -182.3622" fill-rule="evenodd"/><path stroke="#000000" stroke-width="8.0" stroke-linejoin="round" stroke-linecap="butt" d="m110.38159 286.99893l100.44095 -182.3622" fill-rule="evenodd"/><path fill="#000000" fill-opacity="0.0" d="m261.94824 104.63854l100.44095 182.36221" fill-rule="evenodd"/><path stroke="#000000" stroke-width="8.0" stroke-linejoin="round" stroke-linecap="butt" d="m261.94824 104.63854l100.44095 182.36221" fill-rule="evenodd"/><path fill="#d9d9d9" d="m223.4545 235.33464l0 0c0 -6.883377 2.4994202 -13.235718 6.5444946 -16.632996c4.0450745 -3.3972626 9.011673 -3.3152924 13.004547 0.21464539c3.9928741 3.5299377 6.3959503 9.963196 6.292221 16.844864l-5.164139 -0.17048645c0.051132202 -5.016556 -1.3977203 -9.696564 -3.7949524 -12.258209c-2.3972168 -2.5616302 -5.3739624 -2.6107635 -7.7968903 -0.12869263c-2.4229279 2.4820862 -3.9192352 7.1134796 -3.9192352 12.130875z" fill-rule="evenodd"/><path stroke="#000000" stroke-width="3.0" stroke-linejoin="round" stroke-linecap="butt" d="m223.4545 235.33464l0 0c0 -6.883377 2.4994202 -13.235718 6.5444946 -16.632996c4.0450745 -3.3972626 9.011673 -3.3152924 13.004547 0.21464539c3.9928741 3.5299377 6.3959503 9.963196 6.292221 16.844864l-5.164139 -0.17048645c0.051132202 -5.016556 -1.3977203 -9.696564 -3.7949524 -12.258209c-2.3972168 -2.5616302 -5.3739624 -2.6107635 -7.7968903 -0.12869263c-2.4229279 2.4820862 -3.9192352 7.1134796 -3.9192352 12.130875z" fill-rule="evenodd"/><path fill="#ffe599" d="m220.60947 233.67497l31.53453 0l0 22.86818l-31.53453 0z" fill-rule="evenodd"/><path stroke="#000000" stroke-width="3.0" stroke-linejoin="round" stroke-linecap="butt" d="m220.60947 233.67497l31.53453 0l0 22.86818l-31.53453 0z" fill-rule="evenodd"/><path fill="#d9d9d9" d="m223.4545 77.458l0 0c0 -6.8833694 2.4994202 -13.235718 6.5444946 -16.632988c4.0450745 -3.3972702 9.011673 -3.3152962 13.004547 0.21464157c3.9928741 3.529934 6.3959503 9.9632 6.292221 16.84486l-5.164139 -0.17049408c0.051132202 -5.016556 -1.3977203 -9.696548 -3.7949524 -12.258194c-2.3972168 -2.5616455 -5.3739624 -2.6107788 -7.7968903 -0.12869263c-2.4229279 2.4820862 -3.9192352 7.113472 -3.9192352 12.130867z" fill-rule="evenodd"/><path stroke="#000000" stroke-width="3.0" stroke-linejoin="round" stroke-linecap="butt" d="m223.4545 77.458l0 0c0 -6.8833694 2.4994202 -13.235718 6.5444946 -16.632988c4.0450745 -3.3972702 9.011673 -3.3152962 13.004547 0.21464157c3.9928741 3.529934 6.3959503 9.9632 6.292221 16.84486l-5.164139 -0.17049408c0.051132202 -5.016556 -1.3977203 -9.696548 -3.7949524 -12.258194c-2.3972168 -2.5616455 -5.3739624 -2.6107788 -7.7968903 -0.12869263c-2.4229279 2.4820862 -3.9192352 7.113472 -3.9192352 12.130867z" fill-rule="evenodd"/><path fill="#ffe599" d="m220.60947 75.798325l31.53453 0l0 22.868187l-31.53453 0z" fill-rule="evenodd"/><path stroke="#000000" stroke-width="3.0" stroke-linejoin="round" stroke-linecap="butt" d="m220.60947 75.798325l31.53453 0l0 22.868187l-31.53453 0z" fill-rule="evenodd"/><path fill="#d9d9d9" d="m223.4545 382.437l0 0c0 -6.8833923 2.4994202 -13.235718 6.5444946 -16.632996c4.0450745 -3.3972778 9.011673 -3.3153076 13.004547 0.21463013c3.9928741 3.5299377 6.3959503 9.963196 6.292221 16.84488l-5.164139 -0.17050171c0.051132202 -5.0165405 -1.3977203 -9.696564 -3.7949524 -12.258209c-2.3972168 -2.5616455 -5.3739624 -2.6107788 -7.7968903 -0.12869263c-2.4229279 2.4820862 -3.9192352 7.113495 -3.9192352 12.13089z" fill-rule="evenodd"/><path stroke="#000000" stroke-width="3.0" stroke-linejoin="round" stroke-linecap="butt" d="m223.4545 382.437l0 0c0 -6.8833923 2.4994202 -13.235718 6.5444946 -16.632996c4.0450745 -3.3972778 9.011673 -3.3153076 13.004547 0.21463013c3.9928741 3.5299377 6.3959503 9.963196 6.292221 16.84488l-5.164139 -0.17050171c0.051132202 -5.0165405 -1.3977203 -9.696564 -3.7949524 -12.258209c-2.3972168 -2.5616455 -5.3739624 -2.6107788 -7.7968903 -0.12869263c-2.4229279 2.4820862 -3.9192352 7.113495 -3.9192352 12.13089z" fill-rule="evenodd"/><path fill="#ffe599" d="m220.60947 380.77734l31.53453 0l0 22.868164l-31.53453 0z" fill-rule="evenodd"/><path stroke="#000000" stroke-width="3.0" stroke-linejoin="round" stroke-linecap="butt" d="m220.60947 380.77734l31.53453 0l0 22.868164l-31.53453 0z" fill-rule="evenodd"/><path fill="#d9d9d9" d="m359.61984 140.06955l0 0c0 -6.883377 2.4994202 -13.235718 6.5444946 -16.632988c4.0450745 -3.3972702 9.011688 -3.3153 13.004547 0.21463776c3.9928894 3.5299377 6.3959656 9.963196 6.2922363 16.844864l-5.164154 -0.17048645c0.05114746 -5.016556 -1.3977051 -9.696564 -3.7949219 -12.258209c-2.3972473 -2.5616379 -5.3739624 -2.6107712 -7.7969055 -0.128685c-2.422943 2.4820786 -3.9192505 7.113472 -3.9192505 12.130867z" fill-rule="evenodd"/><path stroke="#000000" stroke-width="3.0" stroke-linejoin="round" stroke-linecap="butt" d="m359.61984 140.06955l0 0c0 -6.883377 2.4994202 -13.235718 6.5444946 -16.632988c4.0450745 -3.3972702 9.011688 -3.3153 13.004547 0.21463776c3.9928894 3.5299377 6.3959656 9.963196 6.2922363 16.844864l-5.164154 -0.17048645c0.05114746 -5.016556 -1.3977051 -9.696564 -3.7949219 -12.258209c-2.3972473 -2.5616379 -5.3739624 -2.6107712 -7.7969055 -0.128685c-2.422943 2.4820786 -3.9192505 7.113472 -3.9192505 12.130867z" fill-rule="evenodd"/><path fill="#ffe599" d="m356.77484 138.40988l31.534515 0l0 22.86818l-31.534515 0z" fill-rule="evenodd"/><path stroke="#000000" stroke-width="3.0" stroke-linejoin="round" stroke-linecap="butt" d="m356.77484 138.40988l31.534515 0l0 22.86818l-31.534515 0z" fill-rule="evenodd"/><path fill="#d9d9d9" d="m359.61984 320.43176l0 0c0 -6.8833923 2.4994202 -13.235718 6.5444946 -16.632996c4.0450745 -3.3972778 9.011688 -3.3153076 13.004547 0.21463013c3.9928894 3.5299377 6.3959656 9.963196 6.2922363 16.84488l-5.164154 -0.17050171c0.05114746 -5.0165405 -1.3977051 -9.696564 -3.7949219 -12.258209c-2.3972473 -2.5616455 -5.3739624 -2.6107788 -7.7969055 -0.12869263c-2.422943 2.4820862 -3.9192505 7.113495 -3.9192505 12.13089z" fill-rule="evenodd"/><path stroke="#000000" stroke-width="3.0" stroke-linejoin="round" stroke-linecap="butt" d="m359.61984 320.43176l0 0c0 -6.8833923 2.4994202 -13.235718 6.5444946 -16.632996c4.0450745 -3.3972778 9.011688 -3.3153076 13.004547 0.21463013c3.9928894 3.5299377 6.3959656 9.963196 6.2922363 16.84488l-5.164154 -0.17050171c0.05114746 -5.0165405 -1.3977051 -9.696564 -3.7949219 -12.258209c-2.3972473 -2.5616455 -5.3739624 -2.6107788 -7.7969055 -0.12869263c-2.422943 2.4820862 -3.9192505 7.113495 -3.9192505 12.13089z" fill-rule="evenodd"/><path fill="#ffe599" d="m356.77484 318.7721l31.534515 0l0 22.868164l-31.534515 0z" fill-rule="evenodd"/><path stroke="#000000" stroke-width="3.0" stroke-linejoin="round" stroke-linecap="butt" d="m356.77484 318.7721l31.534515 0l0 22.868164l-31.534515 0z" fill-rule="evenodd"/><path fill="#d9d9d9" d="m87.94268 320.43176l0 0c0 -6.8833923 2.4994278 -13.235718 6.5445023 -16.632996c4.0450745 -3.3972778 9.011673 -3.3153076 13.0045395 0.21463013c3.9928741 3.5299377 6.395958 9.963196 6.2922287 16.84488l-5.164139 -0.17050171c0.051132202 -5.0165405 -1.3977203 -9.696564 -3.7949448 -12.258209c-2.3972244 -2.5616455 -5.3739624 -2.6107788 -7.796898 -0.12869263c-2.4229279 2.4820862 -3.9192352 7.113495 -3.9192352 12.13089z" fill-rule="evenodd"/><path stroke="#000000" stroke-width="3.0" stroke-linejoin="round" stroke-linecap="butt" d="m87.94268 320.43176l0 0c0 -6.8833923 2.4994278 -13.235718 6.5445023 -16.632996c4.0450745 -3.3972778 9.011673 -3.3153076 13.0045395 0.21463013c3.9928741 3.5299377 6.395958 9.963196 6.2922287 16.84488l-5.164139 -0.17050171c0.051132202 -5.0165405 -1.3977203 -9.696564 -3.7949448 -12.258209c-2.3972244 -2.5616455 -5.3739624 -2.6107788 -7.796898 -0.12869263c-2.4229279 2.4820862 -3.9192352 7.113495 -3.9192352 12.13089z" fill-rule="evenodd"/><path fill="#ffe599" d="m85.097664 318.7721l31.534523 0l0 22.868164l-31.534523 0z" fill-rule="evenodd"/><path stroke="#000000" stroke-width="3.0" stroke-linejoin="round" stroke-linecap="butt" d="m85.097664 318.7721l31.534523 0l0 22.868164l-31.534523 0z" fill-rule="evenodd"/><path fill="#d9d9d9" d="m87.94268 140.06955l0 0c0 -6.883377 2.4994278 -13.235718 6.5445023 -16.632988c4.0450745 -3.3972702 9.011673 -3.3153 13.0045395 0.21463776c3.9928741 3.5299377 6.395958 9.963196 6.2922287 16.844864l-5.164139 -0.17048645c0.051132202 -5.016556 -1.3977203 -9.696564 -3.7949448 -12.258209c-2.3972244 -2.5616379 -5.3739624 -2.6107712 -7.796898 -0.128685c-2.4229279 2.4820786 -3.9192352 7.113472 -3.9192352 12.130867z" fill-rule="evenodd"/><path stroke="#000000" stroke-width="3.0" stroke-linejoin="round" stroke-linecap="butt" d="m87.94268 140.06955l0 0c0 -6.883377 2.4994278 -13.235718 6.5445023 -16.632988c4.0450745 -3.3972702 9.011673 -3.3153 13.0045395 0.21463776c3.9928741 3.5299377 6.395958 9.963196 6.2922287 16.844864l-5.164139 -0.17048645c0.051132202 -5.016556 -1.3977203 -9.696564 -3.7949448 -12.258209c-2.3972244 -2.5616379 -5.3739624 -2.6107712 -7.796898 -0.128685c-2.4229279 2.4820786 -3.9192352 7.113472 -3.9192352 12.130867z" fill-rule="evenodd"/><path fill="#ffe599" d="m85.097664 138.40988l31.534523 0l0 22.86818l-31.534523 0z" fill-rule="evenodd"/><path stroke="#000000" stroke-width="3.0" stroke-linejoin="round" stroke-linecap="butt" d="m85.097664 138.40988l31.534523 0l0 22.86818l-31.534523 0z" fill-rule="evenodd"/></g></svg>