<svg version="1.1" viewBox="0.0 0.0 960.0 720.0" fill="none" stroke="none" stroke-linecap="square" stroke-miterlimit="10" xmlns:xlink="http://www.w3.org/1999/xlink" xmlns="http://www.w3.org/2000/svg"><clipPath id="p.0"><path d="m0 0l960.0 0l0 720.0l-960.0 0l0 -720.0z" clip-rule="nonzero"/></clipPath><g clip-path="url(#p.0)"><path fill="#000000" fill-opacity="0.0" d="m0 0l960.0 0l0 720.0l-960.0 0z" fill-rule="evenodd"/><path fill="#00ff00" fill-opacity="0.5038" d="m247.35432 360.0l0 0c0 -128.48665 104.15901 -232.64566 232.64568 -232.64566l0 0c61.701477 0 120.87579 24.51081 164.50531 68.14034c43.629517 43.629517 68.14038 102.80385 68.14038 164.50533l0 0c0 128.48666 -104.15906 232.64569 -232.64569 232.64569l0 0c-128.48666 0 -232.64568 -104.15903 -232.64568 -232.64569z" fill-rule="evenodd"/><path stroke="#000000" stroke-width="4.0" stroke-linejoin="round" stroke-linecap="butt" d="m247.35432 360.0l0 0c0 -128.48665 104.15901 -232.64566 232.64568 -232.64566l0 0c61.701477 0 120.87579 24.51081 164.50531 68.14034c43.629517 43.629517 68.14038 102.80385 68.14038 164.50533l0 0c0 128.48666 -104.15906 232.64569 -232.64569 232.64569l0 0c-128.48666 0 -232.64568 -104.15903 -232.64568 -232.64569z" fill-rule="evenodd"/><path fill="#00ea00" d="m443.84692 202.6947l0 0c0 -19.969223 16.188263 -36.15747 36.1575 -36.15747l0 0c9.589539 0 18.786346 3.809433 25.5672 10.590271c6.7808533 6.7808533 10.5903015 15.977646 10.5903015 25.5672l0 0c0 19.969223 -16.188293 36.157486 -36.1575 36.157486l0 0c-19.969238 0 -36.1575 -16.188263 -36.1575 -36.157486z" fill-rule="evenodd"/><path stroke="#000000" stroke-width="8.0" stroke-linejoin="round" stroke-linecap="butt" d="m443.84692 202.6947l0 0c0 -19.969223 16.188263 -36.15747 36.1575 -36.15747l0 0c9.589539 0 18.786346 3.809433 25.5672 10.590271c6.7808533 6.7808533 10.5903015 15.977646 10.5903015 25.5672l0 0c0 19.969223 -16.188293 36.157486 -36.1575 36.157486l0 0c-19.969238 0 -36.1575 -16.188263 -36.1575 -36.157486z" fill-rule="evenodd"/><path fill="#00ea00" d="m443.84778 360.0l0 0c0 -19.969238 16.188232 -36.15747 36.15747 -36.15747l0 0c9.589569 0 18.786346 3.8094177 25.5672 10.590271c6.7808228 6.7808533 10.590271 15.977631 10.590271 25.5672l0 0c0 19.969238 -16.188232 36.15747 -36.15747 36.15747l0 0c-19.969238 0 -36.15747 -16.188232 -36.15747 -36.15747z" fill-rule="evenodd"/><path stroke="#000000" stroke-width="8.0" stroke-linejoin="round" stroke-linecap="butt" d="m443.84778 360.0l0 0c0 -19.969238 16.188232 -36.15747 36.15747 -36.15747l0 0c9.589569 0 18.786346 3.8094177 25.5672 10.590271c6.7808228 6.7808533 10.590271 15.977631 10.590271 25.5672l0 0c0 19.969238 -16.188232 36.15747 -36.15747 36.15747l0 0c-19.969238 0 -36.15747 -16.188232 -36.15747 -36.15747z" fill-rule="evenodd"/><path fill="#00ea00" d="m584.0368 247.71408l0 0c9.984619 -17.29042 32.095398 -23.212952 49.385803 -13.228348l0 0c8.303162 4.7947845 14.361511 12.691605 16.842346 21.953232c2.480774 9.261658 1.1807861 19.129456 -3.6140137 27.432587l0 0c-9.984558 17.290436 -32.095398 23.212982 -49.385803 13.228363l0 0c-17.290405 -9.984619 -23.212952 -32.095398 -13.2283325 -49.385834z" fill-rule="evenodd"/><path stroke="#000000" stroke-width="8.0" stroke-linejoin="round" stroke-linecap="butt" d="m584.0368 247.71408l0 0c9.984619 -17.29042 32.095398 -23.212952 49.385803 -13.228348l0 0c8.303162 4.7947845 14.361511 12.691605 16.842346 21.953232c2.480774 9.261658 1.1807861 19.129456 -3.6140137 27.432587l0 0c-9.984558 17.290436 -32.095398 23.212982 -49.385803 13.228363l0 0c-17.290405 -9.984619 -23.212952 -32.095398 -13.2283325 -49.385834z" fill-rule="evenodd"/><path fill="#000000" fill-opacity="0.0" d="m505.57162 228.2619l78.456696 19.46457" fill-rule="evenodd"/><path stroke="#000000" stroke-width="8.0" stroke-linejoin="round" stroke-linecap="butt" d="m505.57162 228.2619l78.456696 19.46457" fill-rule="evenodd"/><path fill="#000000" fill-opacity="0.0" d="m507.0055 341.63486l73.41736 -66.48819" fill-rule="evenodd"/><path stroke="#000000" stroke-width="8.0" stroke-linejoin="round" stroke-linecap="butt" d="m507.0055 341.63486l73.41736 -66.48819" fill-rule="evenodd"/><path fill="#00ea00" d="m313.344 283.86618l0 0c-9.984589 -17.290405 -4.0620728 -39.4012 13.228363 -49.38582l0 0c8.303162 -4.7947845 18.17096 -6.094757 27.432587 -3.613968c9.261658 2.4808044 17.158447 8.539154 21.953247 16.842316l0 0c9.984589 17.290436 4.0620728 39.401215 -13.228363 49.385834l0 0c-17.290405 9.984619 -39.401215 4.0620728 -49.385834 -13.228363z" fill-rule="evenodd"/><path stroke="#000000" stroke-width="8.0" stroke-linejoin="round" stroke-linecap="butt" d="m313.344 283.86618l0 0c-9.984589 -17.290405 -4.0620728 -39.4012 13.228363 -49.38582l0 0c8.303162 -4.7947845 18.17096 -6.094757 27.432587 -3.613968c9.261658 2.4808044 17.158447 8.539154 21.953247 16.842316l0 0c9.984589 17.290436 4.0620728 39.401215 -13.228363 49.385834l0 0c-17.290405 9.984619 -39.401215 4.0620728 -49.385834 -13.228363z" fill-rule="evenodd"/><path fill="#000000" fill-opacity="0.0" d="m375.9582 247.70871l78.48819 -19.433075" fill-rule="evenodd"/><path stroke="#000000" stroke-width="8.0" stroke-linejoin="round" stroke-linecap="butt" d="m375.9582 247.70871l78.48819 -19.433075" fill-rule="evenodd"/><path fill="#000000" fill-opacity="0.0" d="m379.57214 275.1413l74.86615 59.3071" fill-rule="evenodd"/><path stroke="#000000" stroke-width="8.0" stroke-linejoin="round" stroke-linecap="butt" d="m379.57214 275.1413l74.86615 59.3071" fill-rule="evenodd"/><path fill="#00ea00" d="m313.344 463.6221l0 0c-9.984589 -17.290436 -4.0620728 -39.401215 13.228363 -49.385834l0 0c8.303162 -4.7947693 18.17096 -6.094757 27.432587 -3.6139526c9.261658 2.480774 17.158447 8.539154 21.953247 16.842285l0 0c9.984589 17.290436 4.0620728 39.401215 -13.228363 49.385834l0 0c-17.290405 9.984619 -39.401215 4.0620728 -49.385834 -13.2283325z" fill-rule="evenodd"/><path stroke="#000000" stroke-width="8.0" stroke-linejoin="round" stroke-linecap="butt" d="m313.344 463.6221l0 0c-9.984589 -17.290436 -4.0620728 -39.401215 13.228363 -49.385834l0 0c8.303162 -4.7947693 18.17096 -6.094757 27.432587 -3.6139526c9.261658 2.480774 17.158447 8.539154 21.953247 16.842285l0 0c9.984589 17.290436 4.0620728 39.401215 -13.228363 49.385834l0 0c-17.290405 9.984619 -39.401215 4.0620728 -49.385834 -13.2283325z" fill-rule="evenodd"/><path fill="#00ea00" d="m443.84253 508.43045l0 0c0 -19.969238 16.188232 -36.15747 36.15747 -36.15747l0 0c9.589569 0 18.786346 3.8094177 25.5672 10.590271c6.7808228 6.7808533 10.590271 15.977631 10.590271 25.5672l0 0c0 19.969208 -16.188232 36.1575 -36.15747 36.1575l0 0c-19.969238 0 -36.15747 -16.188293 -36.15747 -36.1575z" fill-rule="evenodd"/><path stroke="#000000" stroke-width="8.0" stroke-linejoin="round" stroke-linecap="butt" d="m443.84253 508.43045l0 0c0 -19.969238 16.188232 -36.15747 36.15747 -36.15747l0 0c9.589569 0 18.786346 3.8094177 25.5672 10.590271c6.7808228 6.7808533 10.590271 15.977631 10.590271 25.5672l0 0c0 19.969208 -16.188232 36.1575 -36.15747 36.1575l0 0c-19.969238 0 -36.15747 -16.188293 -36.15747 -36.1575z" fill-rule="evenodd"/><path fill="#00ea00" d="m584.05255 427.46475l0 0c9.984619 -17.290436 32.095398 -23.212982 49.385803 -13.228363l0 0c8.303162 4.7948 14.361511 12.691589 16.842346 21.953247c2.480774 9.261627 1.1807861 19.129425 -3.6140137 27.432587l0 0c-9.984558 17.290436 -32.095398 23.212952 -49.385803 13.2283325l0 0c-17.290405 -9.984589 -23.212952 -32.095398 -13.2283325 -49.385803z" fill-rule="evenodd"/><path stroke="#000000" stroke-width="8.0" stroke-linejoin="round" stroke-linecap="butt" d="m584.05255 427.46475l0 0c9.984619 -17.290436 32.095398 -23.212982 49.385803 -13.228363l0 0c8.303162 4.7948 14.361511 12.691589 16.842346 21.953247c2.480774 9.261627 1.1807861 19.129425 -3.6140137 27.432587l0 0c-9.984558 17.290436 -32.095398 23.212952 -49.385803 13.2283325l0 0c-17.290405 -9.984589 -23.212952 -32.095398 -13.2283325 -49.385803z" fill-rule="evenodd"/><path fill="#000000" fill-opacity="0.0" d="m364.921 299.9971l89.51181 182.86615" fill-rule="evenodd"/><path stroke="#000000" stroke-width="8.0" stroke-linejoin="round" stroke-linecap="butt" d="m364.921 299.9971l89.51181 182.86615" fill-rule="evenodd"/><path fill="#000000" fill-opacity="0.0" d="m597.26514 297.0999l-91.68503 185.76376" fill-rule="evenodd"/><path stroke="#000000" stroke-width="8.0" stroke-linejoin="round" stroke-linecap="butt" d="m597.26514 297.0999l-91.68503 185.76376" fill-rule="evenodd"/><path fill="#000000" fill-opacity="0.0" d="m516.1575 508.43045l81.13385 -31.590546" fill-rule="evenodd"/><path stroke="#000000" stroke-width="8.0" stroke-linejoin="round" stroke-linecap="butt" d="m516.1575 508.43045l81.13385 -31.590546" fill-rule="evenodd"/><path fill="#000000" fill-opacity="0.0" d="m443.84253 508.43045l-81.10239 -31.590546" fill-rule="evenodd"/><path stroke="#000000" stroke-width="8.0" stroke-linejoin="round" stroke-linecap="butt" d="m443.84253 508.43045l-81.10239 -31.590546" fill-rule="evenodd"/><path fill="#000000" fill-opacity="0.0" d="m375.9582 427.4646l78.48819 -41.88974" fill-rule="evenodd"/><path stroke="#000000" stroke-width="8.0" stroke-linejoin="round" stroke-linecap="butt" d="m375.9582 427.4646l78.48819 -41.88974" fill-rule="evenodd"/><path fill="#000000" fill-opacity="0.0" d="m584.05255 427.46475l-78.48819 -41.88977" fill-rule="evenodd"/><path stroke="#000000" stroke-width="8.0" stroke-linejoin="round" stroke-linecap="butt" d="m584.05255 427.46475l-78.48819 -41.88977" fill-rule="evenodd"/><path fill="#000000" fill-opacity="0.0" d="m354.00494 410.6223l100.44095 -182.36221" fill-rule="evenodd"/><path stroke="#000000" stroke-width="8.0" stroke-linejoin="round" stroke-linecap="butt" d="m354.00494 410.6223l100.44095 -182.36221" fill-rule="evenodd"/><path fill="#000000" fill-opacity="0.0" d="m505.57162 228.2619l100.44095 182.36221" fill-rule="evenodd"/><path stroke="#000000" stroke-width="8.0" stroke-linejoin="round" stroke-linecap="butt" d="m505.57162 228.2619l100.44095 182.36221" fill-rule="evenodd"/><path fill="#d9d9d9" d="m467.07785 358.958l0 0c0 -6.8833923 2.4994202 -13.235718 6.5444946 -16.632996c4.0450745 -3.3972778 9.011688 -3.3153076 13.004547 0.21463013c3.9928894 3.5299377 6.3959656 9.963196 6.2922363 16.84488l-5.164154 -0.17050171c0.05114746 -5.0165405 -1.3977051 -9.696564 -3.7949524 -12.258209c-2.3972168 -2.561615 -5.3739624 -2.6107483 -7.796875 -0.12869263c-2.422943 2.4820862 -3.9192505 7.113495 -3.9192505 12.13089z" fill-rule="evenodd"/><path stroke="#000000" stroke-width="3.0" stroke-linejoin="round" stroke-linecap="butt" d="m467.07785 358.958l0 0c0 -6.8833923 2.4994202 -13.235718 6.5444946 -16.632996c4.0450745 -3.3972778 9.011688 -3.3153076 13.004547 0.21463013c3.9928894 3.5299377 6.3959656 9.963196 6.2922363 16.84488l-5.164154 -0.17050171c0.05114746 -5.0165405 -1.3977051 -9.696564 -3.7949524 -12.258209c-2.3972168 -2.561615 -5.3739624 -2.6107483 -7.796875 -0.12869263c-2.422943 2.4820862 -3.9192505 7.113495 -3.9192505 12.13089z" fill-rule="evenodd"/><path fill="#ffe599" d="m464.23282 357.29834l31.534546 0l0 22.868164l-31.534546 0z" fill-rule="evenodd"/><path stroke="#000000" stroke-width="3.0" stroke-linejoin="round" stroke-linecap="butt" d="m464.23282 357.29834l31.534546 0l0 22.868164l-31.534546 0z" fill-rule="evenodd"/><path fill="#d9d9d9" d="m467.07785 201.08136l0 0c0 -6.883377 2.4994202 -13.235718 6.5444946 -16.632996c4.0450745 -3.3972626 9.011688 -3.3152924 13.004547 0.21464539c3.9928894 3.5299377 6.3959656 9.963196 6.2922363 16.844864l-5.164154 -0.17048645c0.05114746 -5.016556 -1.3977051 -9.696564 -3.7949524 -12.258209c-2.3972168 -2.5616302 -5.3739624 -2.6107635 -7.796875 -0.12869263c-2.422943 2.4820862 -3.9192505 7.1134796 -3.9192505 12.130875z" fill-rule="evenodd"/><path stroke="#000000" stroke-width="3.0" stroke-linejoin="round" stroke-linecap="butt" d="m467.07785 201.08136l0 0c0 -6.883377 2.4994202 -13.235718 6.5444946 -16.632996c4.0450745 -3.3972626 9.011688 -3.3152924 13.004547 0.21464539c3.9928894 3.5299377 6.3959656 9.963196 6.2922363 16.844864l-5.164154 -0.17048645c0.05114746 -5.016556 -1.3977051 -9.696564 -3.7949524 -12.258209c-2.3972168 -2.5616302 -5.3739624 -2.6107635 -7.796875 -0.12869263c-2.422943 2.4820862 -3.9192505 7.1134796 -3.9192505 12.130875z" fill-rule="evenodd"/><path fill="#ffe599" d="m464.23282 199.42169l31.534546 0l0 22.86818l-31.534546 0z" fill-rule="evenodd"/><path stroke="#000000" stroke-width="3.0" stroke-linejoin="round" stroke-linecap="butt" d="m464.23282 199.42169l31.534546 0l0 22.86818l-31.534546 0z" fill-rule="evenodd"/><path fill="#d9d9d9" d="m467.07785 506.06036l0 0c0 -6.883362 2.4994202 -13.235718 6.5444946 -16.632996c4.0450745 -3.3972778 9.011688 -3.315277 13.004547 0.21466064c3.9928894 3.5299377 6.3959656 9.963196 6.2922363 16.844849l-5.164154 -0.17050171c0.05114746 -5.0165405 -1.3977051 -9.696533 -3.7949524 -12.258179c-2.3972168 -2.5616455 -5.3739624 -2.6107788 -7.796875 -0.12869263c-2.422943 2.4820862 -3.9192505 7.1134644 -3.9192505 12.130859z" fill-rule="evenodd"/><path stroke="#000000" stroke-width="3.0" stroke-linejoin="round" stroke-linecap="butt" d="m467.07785 506.06036l0 0c0 -6.883362 2.4994202 -13.235718 6.5444946 -16.632996c4.0450745 -3.3972778 9.011688 -3.315277 13.004547 0.21466064c3.9928894 3.5299377 6.3959656 9.963196 6.2922363 16.844849l-5.164154 -0.17050171c0.05114746 -5.0165405 -1.3977051 -9.696533 -3.7949524 -12.258179c-2.3972168 -2.5616455 -5.3739624 -2.6107788 -7.796875 -0.12869263c-2.422943 2.4820862 -3.9192505 7.1134644 -3.9192505 12.130859z" fill-rule="evenodd"/><path fill="#ffe599" d="m464.23282 504.4007l31.534546 0l0 22.868164l-31.534546 0z" fill-rule="evenodd"/><path stroke="#000000" stroke-width="3.0" stroke-linejoin="round" stroke-linecap="butt" d="m464.23282 504.4007l31.534546 0l0 22.868164l-31.534546 0z" fill-rule="evenodd"/><path fill="#d9d9d9" d="m603.2432 263.6929l0 0c0 -6.883362 2.4993896 -13.2357025 6.5444946 -16.63298c4.045044 -3.3972778 9.011658 -3.3152924 13.004517 0.21464539c3.992859 3.5299377 6.395996 9.963196 6.2922363 16.844849l-5.1641235 -0.17047119c0.05114746 -5.016571 -1.3977051 -9.696564 -3.794983 -12.258209c-2.3972168 -2.5616455 -5.3739624 -2.6107788 -7.796875 -0.12869263c-2.4229126 2.4820862 -3.9192505 7.1134644 -3.9192505 12.130859z" fill-rule="evenodd"/><path stroke="#000000" stroke-width="3.0" stroke-linejoin="round" stroke-linecap="butt" d="m603.2432 263.6929l0 0c0 -6.883362 2.4993896 -13.2357025 6.5444946 -16.63298c4.045044 -3.3972778 9.011658 -3.3152924 13.004517 0.21464539c3.992859 3.5299377 6.395996 9.963196 6.2922363 16.844849l-5.1641235 -0.17047119c0.05114746 -5.016571 -1.3977051 -9.696564 -3.794983 -12.258209c-2.3972168 -2.5616455 -5.3739624 -2.6107788 -7.796875 -0.12869263c-2.4229126 2.4820862 -3.9192505 7.1134644 -3.9192505 12.130859z" fill-rule="evenodd"/><path fill="#ffe599" d="m600.3982 262.03323l31.534546 0l0 22.868195l-31.534546 0z" fill-rule="evenodd"/><path stroke="#000000" stroke-width="3.0" stroke-linejoin="round" stroke-linecap="butt" d="m600.3982 262.03323l31.534546 0l0 22.868195l-31.534546 0z" fill-rule="evenodd"/><path fill="#d9d9d9" d="m603.2432 444.0551l0 0c0 -6.883362 2.4993896 -13.235718 6.5444946 -16.632996c4.045044 -3.3972778 9.011658 -3.315277 13.004517 0.21466064c3.992859 3.5299377 6.395996 9.963196 6.2922363 16.844849l-5.1641235 -0.17050171c0.05114746 -5.0165405 -1.3977051 -9.696533 -3.794983 -12.258179c-2.3972168 -2.5616455 -5.3739624 -2.6107788 -7.796875 -0.12869263c-2.4229126 2.4820862 -3.9192505 7.1134644 -3.9192505 12.130859z" fill-rule="evenodd"/><path stroke="#000000" stroke-width="3.0" stroke-linejoin="round" stroke-linecap="butt" d="m603.2432 444.0551l0 0c0 -6.883362 2.4993896 -13.235718 6.5444946 -16.632996c4.045044 -3.3972778 9.011658 -3.315277 13.004517 0.21466064c3.992859 3.5299377 6.395996 9.963196 6.2922363 16.844849l-5.1641235 -0.17050171c0.05114746 -5.0165405 -1.3977051 -9.696533 -3.794983 -12.258179c-2.3972168 -2.5616455 -5.3739624 -2.6107788 -7.796875 -0.12869263c-2.4229126 2.4820862 -3.9192505 7.1134644 -3.9192505 12.130859z" fill-rule="evenodd"/><path fill="#ffe599" d="m600.3982 442.39545l31.534546 0l0 22.868164l-31.534546 0z" fill-rule="evenodd"/><path stroke="#000000" stroke-width="3.0" stroke-linejoin="round" stroke-linecap="butt" d="m600.3982 442.39545l31.534546 0l0 22.868164l-31.534546 0z" fill-rule="evenodd"/><path fill="#d9d9d9" d="m331.56604 444.0551l0 0c0 -6.883362 2.4994202 -13.235718 6.5444946 -16.632996c4.0450745 -3.3972778 9.011688 -3.315277 13.004547 0.21466064c3.9928894 3.5299377 6.3959656 9.963196 6.2922363 16.844849l-5.164154 -0.17050171c0.05114746 -5.0165405 -1.3977051 -9.696533 -3.7949524 -12.258179c-2.3972168 -2.5616455 -5.3739624 -2.6107788 -7.796875 -0.12869263c-2.422943 2.4820862 -3.9192505 7.1134644 -3.9192505 12.130859z" fill-rule="evenodd"/><path stroke="#000000" stroke-width="3.0" stroke-linejoin="round" stroke-linecap="butt" d="m331.56604 444.0551l0 0c0 -6.883362 2.4994202 -13.235718 6.5444946 -16.632996c4.0450745 -3.3972778 9.011688 -3.315277 13.004547 0.21466064c3.9928894 3.5299377 6.3959656 9.963196 6.2922363 16.844849l-5.164154 -0.17050171c0.05114746 -5.0165405 -1.3977051 -9.696533 -3.7949524 -12.258179c-2.3972168 -2.5616455 -5.3739624 -2.6107788 -7.796875 -0.12869263c-2.422943 2.4820862 -3.9192505 7.1134644 -3.9192505 12.130859z" fill-rule="evenodd"/><path fill="#ffe599" d="m328.721 442.39545l31.534546 0l0 22.868164l-31.534546 0z" fill-rule="evenodd"/><path stroke="#000000" stroke-width="3.0" stroke-linejoin="round" stroke-linecap="butt" d="m328.721 442.39545l31.534546 0l0 22.868164l-31.534546 0z" fill-rule="evenodd"/><path fill="#d9d9d9" d="m331.56604 263.6929l0 0c0 -6.883362 2.4994202 -13.2357025 6.5444946 -16.63298c4.0450745 -3.3972778 9.011688 -3.3152924 13.004547 0.21464539c3.9928894 3.5299377 6.3959656 9.963196 6.2922363 16.844849l-5.164154 -0.17047119c0.05114746 -5.016571 -1.3977051 -9.696564 -3.7949524 -12.258209c-2.3972168 -2.5616455 -5.3739624 -2.6107788 -7.796875 -0.12869263c-2.422943 2.4820862 -3.9192505 7.1134644 -3.9192505 12.130859z" fill-rule="evenodd"/><path stroke="#000000" stroke-width="3.0" stroke-linejoin="round" stroke-linecap="butt" d="m331.56604 263.6929l0 0c0 -6.883362 2.4994202 -13.2357025 6.5444946 -16.63298c4.0450745 -3.3972778 9.011688 -3.3152924 13.004547 0.21464539c3.9928894 3.5299377 6.3959656 9.963196 6.2922363 16.844849l-5.164154 -0.17047119c0.05114746 -5.016571 -1.3977051 -9.696564 -3.7949524 -12.258209c-2.3972168 -2.5616455 -5.3739624 -2.6107788 -7.796875 -0.12869263c-2.422943 2.4820862 -3.9192505 7.1134644 -3.9192505 12.130859z" fill-rule="evenodd"/><path fill="#ffe599" d="m328.721 262.03323l31.534546 0l0 22.868195l-31.534546 0z" fill-rule="evenodd"/><path stroke="#000000" stroke-width="3.0" stroke-linejoin="round" stroke-linecap="butt" d="m328.721 262.03323l31.534546 0l0 22.868195l-31.534546 0z" fill-rule="evenodd"/></g></svg>