<svg version="1.1" viewBox="0.0 0.0 479.11811023622045 478.246719160105" fill="none" stroke="none" stroke-linecap="square" stroke-miterlimit="10" xmlns:xlink="http://www.w3.org/1999/xlink" xmlns="http://www.w3.org/2000/svg"><clipPath id="p.0"><path d="m0 0l479.1181 0l0 478.2467l-479.1181 0l0 -478.2467z" clip-rule="nonzero"/></clipPath><g clip-path="url(#p.0)"><path fill="#000000" fill-opacity="0.0" d="m0 0l479.1181 0l0 478.2467l-479.1181 0z" fill-rule="evenodd"/><path fill="#4dbd33" d="m5.383202 240.01706l0 0c0 -128.48666 104.15901 -232.64566 232.64566 -232.64566l0 0c61.701477 0 120.87579 24.510813 164.50534 68.140335c43.629517 43.62953 68.14032 102.80387 68.14032 164.50534l0 0c0 128.48666 -104.159 232.64566 -232.64566 232.64566l0 0c-128.48666 0 -232.64566 -104.159 -232.64566 -232.64566z" fill-rule="evenodd"/><path stroke="#000000" stroke-width="8.0" stroke-linejoin="round" stroke-linecap="butt" d="m5.383202 240.01706l0 0c0 -128.48666 104.15901 -232.64566 232.64566 -232.64566l0 0c61.701477 0 120.87579 24.510813 164.50534 68.140335c43.629517 43.62953 68.14032 102.80387 68.14032 164.50534l0 0c0 128.48666 -104.159 232.64566 -232.64566 232.64566l0 0c-128.48666 0 -232.64566 -104.159 -232.64566 -232.64566z" fill-rule="evenodd"/><path fill="#666666" d="m412.04108 394.43134l0 0c-43.92151 49.49591 -106.84259 77.94577 -173.01558 78.22925c-66.17297 0.28347778 -129.33551 -27.626251 -173.67946 -76.74405l172.68283 -155.89948z" fill-rule="evenodd"/><path stroke="#000000" stroke-width="8.0" stroke-linejoin="round" stroke-linecap="butt" d="m412.04108 394.43134l0 0c-43.92151 49.49591 -106.84259 77.94577 -173.01558 78.22925c-66.17297 0.28347778 -129.33551 -27.626251 -173.67946 -76.74405l172.68283 -155.89948z" fill-rule="evenodd"/><path fill="#87ceeb" d="m5.649408 251.21764l0 0c-4.1215625 -85.500854 39.041977 -166.35861 112.375755 -210.5122c73.333786 -44.153595 164.99059 -44.469917 238.62737 -0.82354355c73.63681 43.646378 117.35742 124.20428 113.82608 209.73154z" fill-rule="evenodd"/><path stroke="#000000" stroke-width="8.0" stroke-linejoin="round" stroke-linecap="butt" d="m5.649408 251.21764l0 0c-4.1215625 -85.500854 39.041977 -166.35861 112.375755 -210.5122c73.333786 -44.153595 164.99059 -44.469917 238.62737 -0.82354355c73.63681 43.646378 117.35742 124.20428 113.82608 209.73154z" fill-rule="evenodd"/><path fill="#ffd966" d="m405.35696 109.21916l-17.3237 6.160713l0 -12.321426zm-12.57666 -30.356468l-7.8911743 16.607597l-8.712433 -8.712448zm-30.352478 -12.57267l6.1607056 17.323692l-12.321411 0zm-30.356476 12.57267l16.607605 7.895149l-8.712433 8.712448zm-12.572662 30.356468l17.3237 -6.160713l0 12.321426zm12.572662 30.352493l7.895172 -16.60363l8.712433 8.712456zm30.356476 12.576645l-6.1607056 -17.3237l12.321411 0zm30.352478 -12.576645l-16.603607 -7.8911743l8.712433 -8.712456zm-51.817047 -30.352493l0 0c0 -11.854553 9.610016 -21.46457 21.46457 -21.46457c11.854553 0 21.46457 9.610016 21.46457 21.46457c0 11.854553 -9.610016 21.46457 -21.46457 21.46457c-11.854553 0 -21.46457 -9.610016 -21.46457 -21.46457z" fill-rule="evenodd"/><path stroke="#000000" stroke-width="2.0" stroke-linejoin="round" stroke-linecap="butt" d="m405.35696 109.21916l-17.3237 6.160713l0 -12.321426zm-12.57666 -30.356468l-7.8911743 16.607597l-8.712433 -8.712448zm-30.352478 -12.57267l6.1607056 17.323692l-12.321411 0zm-30.356476 12.57267l16.607605 7.895149l-8.712433 8.712448zm-12.572662 30.356468l17.3237 -6.160713l0 12.321426zm12.572662 30.352493l7.895172 -16.60363l8.712433 8.712456zm30.356476 12.576645l-6.1607056 -17.3237l12.321411 0zm30.352478 -12.576645l-16.603607 -7.8911743l8.712433 -8.712456zm-51.817047 -30.352493l0 0c0 -11.854553 9.610016 -21.46457 21.46457 -21.46457c11.854553 0 21.46457 9.610016 21.46457 21.46457c0 11.854553 -9.610016 21.46457 -21.46457 21.46457c-11.854553 0 -21.46457 -9.610016 -21.46457 -21.46457z" fill-rule="evenodd"/><path fill="#ffd966" d="m228.5328 446.77823l4.7480316 -77.95276l9.496063 0l4.7480316 77.95276z" fill-rule="evenodd"/><path fill="#ffd966" d="m233.27296 331.85696l2.3779602 -38.992126l4.755905 0l2.377945 38.992126z" fill-rule="evenodd"/><path fill="#000000" fill-opacity="0.0" d="m238.02887 263.1378l0 11.874023" fill-rule="evenodd"/><path stroke="#f1c232" stroke-width="3.0" stroke-linejoin="round" stroke-linecap="butt" d="m238.02887 263.1378l0 11.874023" fill-rule="evenodd"/></g></svg>